<svg width="472" height="415" viewBox="0 0 472 415" fill="none" xmlns="http://www.w3.org/2000/svg">
<path fill-rule="evenodd" clip-rule="evenodd" d="M307.212 249.529H471.252V88.5071H307.212V249.529Z" fill="#DC3719"/>
<path fill-rule="evenodd" clip-rule="evenodd" d="M95.3481 317.728C83.6191 313.655 77.8091 306.379 73.2481 294.488C68.6871 282.597 63.0401 259.737 60.2171 227.864H57.4211H55.1401C52.8591 259.547 47.3011 282.119 42.9331 294.082C38.2261 306.977 33.0141 313.981 20.1181 317.864C10.6211 320.722 0.00012207 320.633 0.00012207 320.633V326.904H57.4211H114.515V320.633C114.515 320.633 104.716 320.98 95.3481 317.728Z" fill="#0A0A0A"/>
<path fill-rule="evenodd" clip-rule="evenodd" d="M14.2373 8.65849V1.00049H103.887C103.887 1.00049 189.773 208.913 193.9 218.253C195.963 222.923 199.819 227.47 204.515 227.823C209.212 228.176 214.747 224.331 218.443 220.642C226.588 212.511 232.126 203.266 232.126 203.266H235.832L187.601 326.904H181.737C181.737 326.904 81.5273 78.7665 70.8843 52.4865C65.2773 38.6395 62.4703 31.4935 53.6703 23.2545C45.1843 15.3105 36.3713 12.4665 31.1133 10.9685C22.0233 8.38049 14.2373 8.65849 14.2373 8.65849Z" fill="#0A0A0A"/>
<path fill-rule="evenodd" clip-rule="evenodd" d="M265.927 7.30349V1.00049H379.139V7.30349C379.139 7.30349 368.714 6.65149 360.162 10.3175C351.61 13.9825 345.746 22.6975 345.746 39.3125V255.149C345.746 272.823 345.501 282.108 344.117 296.117C342.732 310.126 339.393 329.755 333.447 346.044C327.501 362.335 321.719 371.293 316.506 378.542C311.293 385.791 303.393 393.529 294.271 399.555C285.149 405.583 273.583 410.225 262.832 412.18C252.081 414.135 240.027 414.298 240.027 414.298V408.841C240.027 408.841 248.009 408.841 254.28 405.745C260.551 402.651 266.514 397.578 270.319 392.345C274.198 387.008 279.721 379.139 285.471 362.496C290.198 348.814 294.96 324.58 296.361 312.693C297.593 302.232 299.728 274.797 299.728 262.886V37.1945C299.728 24.1625 294.515 18.1365 292.804 16.0995C291.094 14.0635 286.172 9.93049 279.773 8.60649C272.687 7.14049 265.927 7.30349 265.927 7.30349Z" fill="#0A0A0A"/>
<path fill-rule="evenodd" clip-rule="evenodd" d="M345.787 155.259H371.728L372.921 154.032V119.182L374.07 118.012H404.511L405.605 119.182V154.032L406.909 155.259H442.576L443.746 156.458V186.082L442.576 187.251H406.913L405.605 188.56V223.181L404.284 224.502H374.131L372.921 223.181V188.56L371.653 187.251H345.787V155.259Z" fill="white"/>
</svg>
