<svg width="56" height="65" viewBox="0 0 56 65" fill="none" xmlns="http://www.w3.org/2000/svg"><path d="M56 28.765c0 15.464-15.5 15-28 28.5-17 22.5-28-13.036-28-28.5s12.536-28 28-28 28 12.536 28 28z" fill="#CED8FF"/><path d="M56 28.765c0 15.464-15.5 15-28 28.5-17 22.5-28-13.036-28-28.5s12.536-28 28-28 28 12.536 28 28z" fill="url(#paint0_linear)"/><path fill="#fff" d="M16 18.765h24v3H16zm0 7h24v3H16zm0 7h24v3H16z"/><circle cx="48.5" cy="57.5" r="7.5" fill="#CED8FF"/><circle cx="48.5" cy="57.5" r="7.5" fill="url(#paint1_linear)"/><defs><linearGradient id="paint0_linear" x1="22" y1="16.5" x2="48.5" y2="182" gradientUnits="userSpaceOnUse"><stop stop-color="#CED8FF"/><stop offset=".546" stop-color="#7C90DD"/></linearGradient><linearGradient id="paint1_linear" x1="46.893" y1="53.702" x2="52.399" y2="92.857" gradientUnits="userSpaceOnUse"><stop stop-color="#CED8FF"/><stop offset=".546" stop-color="#7C90DD"/></linearGradient></defs></svg>