<svg width="56" height="64" viewBox="0 0 56 64" fill="none" xmlns="http://www.w3.org/2000/svg"><path d="M56 28c0 15.464-15.5 15-28 28.5C11 79 0 43.464 0 28S12.536 0 28 0s28 12.536 28 28z" fill="#D5F5CA"/><path d="M56 28c0 15.464-15.5 15-28 28.5C11 79 0 43.464 0 28S12.536 0 28 0s28 12.536 28 28z" fill="url(#paint0_linear)"/><path fill="#fff" d="M16 18h24v3H16zm0 7h24v3H16zm0 7h24v3H16z"/><circle cx="48.5" cy="56.5" r="7.5" fill="#D5F5CA"/><circle cx="48.5" cy="56.5" r="7.5" fill="url(#paint1_linear)"/><defs><linearGradient id="paint0_linear" x1="51" y1="111" x2="20.5" y2="32" gradientUnits="userSpaceOnUse"><stop stop-color="#378723"/><stop offset="1" stop-color="#87E070" stop-opacity="0"/></linearGradient><linearGradient id="paint1_linear" x1="54.661" y1="75.112" x2="48.167" y2="55.959" gradientUnits="userSpaceOnUse"><stop stop-color="#378723"/><stop offset="1" stop-color="#87E070" stop-opacity="0"/></linearGradient></defs></svg>