<svg width="1440" height="612" viewBox="0 0 1440 612" fill="none" xmlns="http://www.w3.org/2000/svg"><g opacity=".6"><path opacity=".1" d="M17.38 569.294c-2.403-16.24-15.129-26.493-30.225-24.233-15.095 2.26-24.301 15.797-21.899 32.036 2.402 16.239 15.128 26.492 30.224 24.232 15.095-2.26 24.302-15.796 21.9-32.035zM3.778 571.33c.916 6.196-3.046 11.886-10.807 13.048-7.762 1.162-13.199-3.121-14.116-9.317-.916-6.197 3.046-11.886 10.807-13.048 7.762-1.162 13.199 3.12 14.116 9.317zm-48.618-70.341l6.765 45.726 13.03-1.951-2.16-14.601 36.814-5.512-2.444-16.524-36.814 5.512-2.16-14.601-13.031 1.951zm18.163-42.53c-2.726-3.669-6.798-5.607-11.355-4.925-9.399 1.407-13.206 13.553-11.31 26.373.885 5.983 3.034 12.141 6.43 17.384l11.734-6.78c-2.769-3.954-4.635-8.698-5.215-12.615-.61-4.131.228-7.315 2.792-7.698 1.851-.278 3.212 1.048 3.633 3.897l1.78 12.037 12.106-1.813-1.992-13.461c-.4-2.707-.014-5.021 2.264-5.362 3.062-.459 5.066 3.245 5.835 8.445.643 4.344.425 9.764-.791 14.824l12.334 3.177c1.99-7.214 2.267-14.682 1.277-21.377-1.992-13.461-9.2-23.812-18.884-22.362-5.34.799-9.281 4.665-10.638 10.256zm-14.726-40.012l1.528 10.328-15.31 2.292 2.445 16.524 49.845-7.462-3.657-24.715C-8.5 402.237-15.938 394.76-27.83 396.54c-11.037 1.653-15.374 9.728-13.572 21.907zm30.984-29.173l-2.444-16.524-49.845 7.462 2.445 16.525 49.844-7.463zm-7.713 29.038l1.043 7.052-11.037 1.652-1.043-7.051c-.495-3.348.346-6.022 4.12-6.587 3.845-.576 6.422 1.587 6.917 4.934zm-27.843-88.823c-2.808-3.729-6.859-5.525-11.63-4.811-8.26 1.237-11.976 9.074-10.153 21.396l3.74 25.284 49.845-7.462-3.941-26.638c-1.928-13.034-8.629-19.457-17.458-18.135-5.768.863-9.22 4.584-10.403 10.366zm-8.738 23.586l-1.054-7.122c-.422-2.849.742-4.334 3.163-4.696 2.42-.363 3.82.738 4.242 3.587l1.054 7.123-7.405 1.108zm24.966-13.275l1.38 9.331-7.833 1.173-1.38-9.331c-.411-2.778.67-4.323 3.234-4.707 2.563-.383 4.188.757 4.599 3.534zm-30.765-50.517l1.528 10.328-15.31 2.291 2.445 16.525 49.845-7.463-3.657-24.715c-1.949-13.176-9.387-20.653-21.279-18.873-11.037 1.652-15.374 9.727-13.572 21.907zm30.984-29.173l-2.444-16.524-49.845 7.462 2.445 16.524 49.844-7.462zm-7.713 29.038l1.043 7.051-11.037 1.653-1.043-7.052c-.495-3.347.346-6.021 4.12-6.586 3.846-.576 6.422 1.586 6.917 4.934zm455.783 220.087c-2.402-16.239-15.128-26.492-30.223-24.232-15.096 2.26-24.302 15.796-21.9 32.035 2.403 16.24 15.128 26.492 30.224 24.232 15.096-2.26 24.302-15.796 21.899-32.035zm-13.6 2.036c.917 6.197-3.045 11.886-10.807 13.048-7.761 1.162-13.199-3.12-14.115-9.317-.917-6.196 3.045-11.886 10.806-13.048 7.762-1.162 13.199 3.121 14.116 9.317zm-48.618-70.341l6.765 45.726 13.031-1.951-2.16-14.601 36.813-5.511-2.444-16.524-36.814 5.511-2.16-14.601-13.031 1.951zm18.163-42.53c-2.726-3.668-6.797-5.607-11.355-4.925-9.399 1.407-13.206 13.553-11.31 26.374.885 5.982 3.034 12.14 6.43 17.383l11.734-6.78c-2.769-3.954-4.635-8.698-5.215-12.615-.611-4.131.228-7.314 2.792-7.698 1.851-.277 3.212 1.048 3.633 3.897l1.781 12.037 12.105-1.812-1.991-13.462c-.401-2.706-.015-5.021 2.263-5.362 3.062-.458 5.066 3.246 5.835 8.445.643 4.345.426 9.765-.791 14.825l12.334 3.176c1.989-7.214 2.267-14.681 1.277-21.376-1.992-13.462-9.2-23.813-18.884-22.363-5.341.8-9.281 4.666-10.638 10.256zm-14.726-40.011l1.528 10.327-15.309 2.292 2.444 16.525 49.845-7.463-3.657-24.715c-1.949-13.176-9.387-20.653-21.279-18.873-11.037 1.652-15.374 9.727-13.572 21.907zm30.984-29.173l-2.444-16.524-49.845 7.462 2.445 16.524 49.844-7.462zm-7.713 29.038l1.043 7.051-11.037 1.652-1.043-7.051c-.495-3.347.346-6.022 4.12-6.587 3.846-.575 6.422 1.587 6.917 4.935zm-27.843-88.823c-2.808-3.729-6.858-5.526-11.629-4.811-8.26 1.236-11.977 9.073-10.154 21.395l3.74 25.285 49.845-7.463-3.941-26.638c-1.928-13.034-8.628-19.457-17.458-18.135-5.768.864-9.221 4.584-10.403 10.367zm-8.738 23.586l-1.054-7.123c-.421-2.849.742-4.333 3.163-4.696 2.421-.362 3.821.738 4.243 3.587l1.053 7.123-7.405 1.109zm24.966-13.275l1.38 9.33-7.833 1.173-1.38-9.331c-.411-2.777.671-4.322 3.234-4.706 2.563-.384 4.188.756 4.599 3.534zm-30.765-50.518l1.528 10.328-15.309 2.292 2.444 16.524 49.845-7.462-3.656-24.715c-1.95-13.177-9.388-20.654-21.28-18.874-11.037 1.653-15.373 9.728-13.572 21.907zm30.984-29.173l-2.444-16.524-49.845 7.462 2.445 16.525 49.844-7.463zm-7.713 29.038l1.043 7.052-11.037 1.652-1.043-7.051c-.495-3.348.347-6.022 4.121-6.587 3.845-.576 6.421 1.587 6.916 4.934zm455.782 220.087c-2.402-16.239-15.128-26.492-30.223-24.232-15.096 2.26-24.302 15.796-21.9 32.035 2.403 16.24 15.128 26.492 30.224 24.232 15.096-2.26 24.302-15.796 21.899-32.035zm-13.6 2.036c.917 6.197-3.045 11.886-10.807 13.048-7.761 1.162-13.199-3.12-14.115-9.317-.917-6.196 3.045-11.886 10.807-13.048 7.761-1.162 13.198 3.12 14.115 9.317zm-48.618-70.341l6.765 45.726 13.031-1.951-2.16-14.601 36.813-5.511-2.444-16.524-36.814 5.511-2.16-14.601-13.031 1.951zm18.164-42.53c-2.727-3.669-6.798-5.607-11.355-4.925-9.4 1.407-13.207 13.553-11.311 26.373.886 5.983 3.034 12.141 6.43 17.384l11.734-6.78c-2.769-3.954-4.635-8.698-5.214-12.615-.612-4.131.228-7.314 2.791-7.698 1.851-.277 3.212 1.048 3.633 3.897l1.781 12.037 12.105-1.812-1.991-13.462c-.401-2.706-.015-5.021 2.263-5.362 3.062-.459 5.066 3.246 5.835 8.445.643 4.345.426 9.765-.791 14.824l12.334 3.177c1.989-7.214 2.268-14.681 1.277-21.376-1.991-13.462-9.2-23.813-18.884-22.363-5.34.8-9.281 4.666-10.637 10.256zm-14.727-40.011l1.528 10.327-15.309 2.292 2.444 16.524 49.845-7.462-3.656-24.715c-1.95-13.176-9.388-20.654-21.28-18.873-11.037 1.652-15.374 9.727-13.572 21.907zm30.984-29.173l-2.444-16.525-49.845 7.463 2.445 16.524 49.844-7.462zm-7.713 29.038l1.043 7.051-11.037 1.652-1.043-7.051c-.495-3.348.347-6.022 4.121-6.587 3.845-.575 6.421 1.587 6.916 4.935zm-27.843-88.823c-2.808-3.73-6.858-5.526-11.629-4.811-8.26 1.236-11.977 9.073-10.154 21.395l3.74 25.285 49.845-7.463-3.941-26.638c-1.928-13.034-8.628-19.457-17.458-18.135-5.768.864-9.22 4.584-10.403 10.367zm-8.738 23.586l-1.054-7.123c-.421-2.849.742-4.334 3.163-4.696 2.421-.362 3.821.738 4.243 3.587l1.053 7.123-7.405 1.109zm24.966-13.275l1.38 9.33-7.832 1.173-1.381-9.331c-.411-2.777.671-4.323 3.234-4.706 2.564-.384 4.188.756 4.599 3.534zm-30.765-50.518l1.528 10.328-15.309 2.292 2.445 16.524 49.844-7.462-3.656-24.715c-1.95-13.177-9.388-20.654-21.279-18.874-11.037 1.653-15.374 9.728-13.573 21.907zm30.985-29.173l-2.445-16.524-49.845 7.462 2.445 16.524 49.845-7.462zm-7.714 29.038l1.043 7.051-11.037 1.653-1.043-7.051c-.495-3.348.347-6.022 4.121-6.587 3.845-.576 6.421 1.587 6.916 4.934zm455.784 220.087c-2.4-16.239-15.13-26.492-30.23-24.232-15.09 2.26-24.3 15.796-21.89 32.036 2.4 16.239 15.12 26.492 30.22 24.232 15.09-2.26 24.3-15.796 21.9-32.036zm-13.6 2.036c.91 6.197-3.05 11.886-10.81 13.048-7.76 1.162-13.2-3.12-14.11-9.316-.92-6.197 3.04-11.886 10.8-13.048 7.76-1.162 13.2 3.12 14.12 9.316zm-48.62-70.341l6.77 45.727 13.03-1.951-2.16-14.601 36.81-5.512-2.45-16.524-36.81 5.511-2.16-14.601-13.03 1.951zm18.16-42.529c-2.72-3.669-6.79-5.608-11.35-4.925-9.4 1.407-13.21 13.552-11.31 26.373.88 5.983 3.03 12.141 6.43 17.383l11.73-6.78c-2.77-3.953-4.63-8.697-5.21-12.615-.61-4.131.23-7.314 2.79-7.698 1.85-.277 3.21 1.048 3.63 3.897l1.78 12.037 12.11-1.812-1.99-13.462c-.4-2.706-.02-5.021 2.26-5.362 3.06-.458 5.07 3.246 5.84 8.445.64 4.345.42 9.765-.8 14.825l12.34 3.177c1.99-7.214 2.27-14.682 1.28-21.377-2-13.461-9.2-23.812-18.89-22.362-5.34.799-9.28 4.665-10.64 10.256zm-14.72-40.012l1.53 10.328-15.31 2.292 2.44 16.524 49.85-7.462-3.66-24.715c-1.95-13.177-9.39-20.654-21.28-18.874-11.04 1.653-15.37 9.728-13.57 21.907zm30.98-29.173l-2.44-16.524-49.85 7.462 2.45 16.524 49.84-7.462zm-7.71 29.038l1.04 7.051-11.04 1.653-1.04-7.052c-.49-3.347.35-6.021 4.12-6.586 3.85-.576 6.42 1.587 6.92 4.934zm-27.84-88.823c-2.81-3.729-6.86-5.525-11.63-4.811-8.26 1.237-11.98 9.073-10.16 21.395l3.74 25.285 49.85-7.462-3.94-26.638c-1.93-13.034-8.63-19.457-17.46-18.135-5.77.863-9.22 4.583-10.4 10.366zm-8.74 23.586l-1.06-7.123c-.42-2.849.75-4.333 3.17-4.696 2.42-.362 3.82.739 4.24 3.588l1.05 7.122-7.4 1.109zm24.96-13.275l1.38 9.331-7.83 1.172-1.38-9.33c-.41-2.778.67-4.323 3.23-4.707 2.57-.384 4.19.756 4.6 3.534zm-30.76-50.517l1.53 10.327-15.31 2.292 2.44 16.524 49.85-7.462-3.66-24.715c-1.95-13.176-9.39-20.654-21.28-18.873-11.04 1.652-15.37 9.727-13.57 21.907zm30.98-29.173l-2.44-16.525-49.85 7.463 2.45 16.524 49.84-7.462zm-7.71 29.038l1.04 7.051-11.03 1.652-1.05-7.051c-.49-3.348.35-6.022 4.12-6.587 3.85-.575 6.42 1.587 6.92 4.935zM117.67 554.279c-2.402-16.239-15.128-26.492-30.224-24.232-15.096 2.26-24.302 15.796-21.9 32.035 2.403 16.24 15.129 26.492 30.225 24.232 15.095-2.26 24.301-15.796 21.899-32.035zm-13.6 2.036c.916 6.197-3.046 11.886-10.807 13.048-7.762 1.162-13.199-3.12-14.116-9.317-.916-6.196 3.046-11.886 10.807-13.048 7.762-1.162 13.199 3.12 14.116 9.317zm-48.618-70.341l6.765 45.726 13.03-1.951-2.16-14.601 36.814-5.511-2.445-16.524-36.813 5.511-2.16-14.601-13.031 1.951zm18.163-42.53c-2.726-3.668-6.798-5.607-11.355-4.925-9.4 1.407-13.207 13.553-11.31 26.373.885 5.983 3.033 12.141 6.43 17.384l11.733-6.78c-2.768-3.954-4.634-8.698-5.214-12.615-.611-4.131.228-7.314 2.791-7.698 1.852-.277 3.213 1.048 3.634 3.897l1.78 12.037 12.106-1.812-1.992-13.462c-.4-2.706-.015-5.021 2.264-5.362 3.062-.459 5.066 3.246 5.835 8.445.643 4.345.425 9.765-.791 14.825l12.333 3.176c1.99-7.214 2.268-14.681 1.278-21.376-1.992-13.462-9.2-23.813-18.884-22.363-5.34.8-9.281 4.666-10.638 10.256zM58.89 403.433l1.528 10.327-15.31 2.292 2.445 16.524 49.845-7.462-3.657-24.715c-1.95-13.176-9.387-20.653-21.279-18.873-11.037 1.652-15.374 9.727-13.572 21.907zm30.984-29.173l-2.445-16.524-49.844 7.462 2.444 16.524 49.845-7.462zm-7.713 29.038l1.043 7.051-11.037 1.652-1.043-7.051c-.496-3.347.346-6.022 4.12-6.587 3.845-.575 6.422 1.587 6.917 4.935zm-27.843-88.823c-2.808-3.73-6.859-5.526-11.63-4.811-8.26 1.236-11.977 9.073-10.154 21.395l3.741 25.285 49.844-7.463-3.94-26.638c-1.929-13.034-8.629-19.457-17.458-18.135-5.768.864-9.22 4.584-10.403 10.367zm-8.739 23.586l-1.053-7.123c-.422-2.849.742-4.333 3.163-4.696 2.42-.362 3.82.738 4.242 3.587l1.054 7.123-7.406 1.109zm24.966-13.275l1.38 9.33-7.832 1.173-1.38-9.331c-.411-2.777.67-4.323 3.234-4.706 2.563-.384 4.188.756 4.599 3.534zM39.78 274.268l1.528 10.328-15.31 2.292 2.445 16.524 49.845-7.462-3.657-24.715c-1.95-13.177-9.387-20.654-21.279-18.874-11.037 1.653-15.374 9.728-13.572 21.907zm30.984-29.173l-2.444-16.524-49.845 7.462 2.445 16.525 49.844-7.463zm-7.713 29.038l1.043 7.052-11.037 1.652-1.043-7.051c-.495-3.348.346-6.022 4.12-6.587 3.845-.576 6.422 1.587 6.917 4.934zM518.833 494.22c-2.402-16.239-15.128-26.492-30.224-24.232-15.095 2.26-24.301 15.796-21.899 32.036 2.403 16.239 15.128 26.492 30.224 24.232 15.096-2.26 24.302-15.796 21.899-32.036zm-13.6 2.036c.916 6.197-3.046 11.886-10.807 13.048-7.762 1.162-13.199-3.12-14.116-9.316-.916-6.197 3.046-11.886 10.807-13.048 7.762-1.162 13.199 3.12 14.116 9.316zm-48.618-70.341l6.765 45.727 13.031-1.951-2.161-14.601 36.814-5.512-2.444-16.524-36.814 5.512-2.16-14.602-13.031 1.951zm18.163-42.529c-2.726-3.669-6.798-5.608-11.355-4.925-9.399 1.407-13.206 13.552-11.31 26.373.885 5.983 3.034 12.141 6.43 17.384l11.734-6.781c-2.769-3.953-4.635-8.697-5.215-12.615-.611-4.131.228-7.314 2.792-7.698 1.851-.277 3.212 1.048 3.633 3.897l1.781 12.037 12.105-1.812-1.992-13.461c-.4-2.707-.015-5.022 2.264-5.363 3.062-.458 5.066 3.246 5.835 8.445.643 4.345.425 9.765-.791 14.825l12.334 3.177c1.989-7.214 2.267-14.682 1.277-21.377-1.992-13.461-9.2-23.812-18.884-22.362-5.341.799-9.281 4.665-10.638 10.256zm-14.726-40.012l1.528 10.328-15.309 2.292 2.444 16.524 49.845-7.462-3.657-24.715c-1.949-13.177-9.387-20.654-21.279-18.874-11.037 1.653-15.374 9.728-13.572 21.907zm30.984-29.173l-2.444-16.524-49.845 7.462 2.445 16.524 49.844-7.462zm-7.713 29.038l1.043 7.051-11.037 1.653-1.043-7.052c-.495-3.347.346-6.021 4.12-6.586 3.845-.576 6.422 1.587 6.917 4.934zm-27.843-88.823c-2.808-3.729-6.859-5.525-11.629-4.811-8.26 1.237-11.977 9.073-10.155 21.395l3.741 25.285 49.845-7.462-3.941-26.638c-1.929-13.034-8.629-19.457-17.458-18.135-5.768.863-9.221 4.583-10.403 10.366zm-8.738 23.586l-1.054-7.123c-.422-2.848.742-4.333 3.163-4.696 2.421-.362 3.821.739 4.242 3.588l1.054 7.122-7.405 1.109zm24.966-13.275l1.38 9.331-7.833 1.172-1.38-9.33c-.411-2.778.67-4.323 3.234-4.707 2.563-.384 4.188.756 4.599 3.534zm-30.765-50.517l1.528 10.327-15.309 2.292 2.444 16.524 49.845-7.462-3.657-24.715c-1.949-13.176-9.387-20.654-21.279-18.873-11.037 1.652-15.374 9.727-13.572 21.907zm30.984-29.173l-2.444-16.525-49.845 7.463 2.445 16.524 49.844-7.462zm-7.713 29.038l1.043 7.051-11.037 1.652-1.043-7.051c-.495-3.348.346-6.022 4.12-6.587 3.846-.575 6.422 1.587 6.917 4.935zm455.782 220.086c-2.402-16.239-15.128-26.492-30.223-24.232-15.096 2.26-24.302 15.796-21.9 32.036 2.403 16.239 15.128 26.492 30.224 24.232 15.096-2.26 24.302-15.797 21.899-32.036zm-13.6 2.036c.917 6.197-3.045 11.886-10.807 13.048-7.761 1.162-13.199-3.12-14.115-9.317-.917-6.196 3.045-11.885 10.806-13.047 7.762-1.162 13.199 3.12 14.116 9.316zm-48.618-70.341l6.765 45.727 13.031-1.951-2.16-14.601 36.813-5.512-2.444-16.524-36.814 5.511-2.16-14.601-13.031 1.951zm18.163-42.529c-2.726-3.669-6.797-5.608-11.355-4.925-9.399 1.407-13.206 13.552-11.31 26.373.885 5.983 3.034 12.14 6.43 17.383l11.734-6.78c-2.769-3.953-4.635-8.697-5.215-12.615-.611-4.131.228-7.314 2.792-7.698 1.851-.277 3.212 1.048 3.633 3.897l1.781 12.037 12.105-1.812-1.991-13.462c-.401-2.706-.015-5.021 2.263-5.362 3.062-.458 5.066 3.246 5.835 8.445.643 4.345.426 9.765-.791 14.825l12.334 3.177c1.989-7.214 2.268-14.682 1.277-21.377-1.992-13.461-9.2-23.812-18.884-22.362-5.34.799-9.281 4.665-10.638 10.256zm-14.726-40.012l1.528 10.328-15.309 2.292 2.444 16.524 49.845-7.463-3.657-24.715c-1.949-13.176-9.387-20.653-21.279-18.873-11.037 1.652-15.374 9.728-13.572 21.907zm30.984-29.173l-2.444-16.524-49.845 7.462 2.445 16.524 49.844-7.462zm-7.713 29.038l1.043 7.051-11.037 1.653-1.043-7.052c-.495-3.347.346-6.021 4.12-6.586 3.846-.576 6.422 1.586 6.917 4.934zm-27.843-88.823c-2.808-3.729-6.858-5.525-11.629-4.811-8.26 1.237-11.977 9.073-10.154 21.395l3.74 25.285 49.845-7.462-3.941-26.638c-1.928-13.034-8.628-19.457-17.458-18.135-5.768.863-9.22 4.583-10.403 10.366zm-8.738 23.586l-1.054-7.123c-.421-2.849.742-4.333 3.163-4.696 2.421-.362 3.821.739 4.243 3.588l1.053 7.122-7.405 1.109zm24.966-13.275l1.38 9.331-7.833 1.172-1.38-9.33c-.411-2.778.671-4.323 3.234-4.707 2.563-.384 4.188.756 4.599 3.534zm-30.765-50.517l1.528 10.327-15.309 2.292 2.444 16.524 49.845-7.462-3.656-24.715c-1.95-13.177-9.388-20.654-21.28-18.873-11.037 1.652-15.373 9.727-13.572 21.907zm30.984-29.173l-2.444-16.525-49.845 7.463 2.445 16.524 49.844-7.462zm-7.713 29.038l1.043 7.051-11.037 1.652-1.043-7.051c-.495-3.348.347-6.022 4.121-6.587 3.845-.575 6.421 1.587 6.916 4.935zm455.783 220.087c-2.4-16.24-15.13-26.492-30.22-24.232-15.1 2.26-24.31 15.796-21.9 32.035 2.4 16.239 15.12 26.492 30.22 24.232 15.1-2.26 24.3-15.796 21.9-32.035zm-13.6 2.036c.92 6.196-3.05 11.886-10.81 13.048-7.76 1.162-13.2-3.121-14.11-9.317-.92-6.197 3.04-11.886 10.8-13.048 7.76-1.162 13.2 3.12 14.12 9.317zm-48.62-70.341l6.77 45.726 13.03-1.951-2.16-14.601 36.81-5.511-2.44-16.525-36.82 5.512-2.16-14.601-13.03 1.951zm18.16-42.53c-2.72-3.669-6.79-5.607-11.35-4.925-9.4 1.407-13.21 13.553-11.31 26.373.88 5.983 3.03 12.141 6.43 17.384l11.73-6.78c-2.77-3.954-4.63-8.698-5.21-12.615-.61-4.131.23-7.315 2.79-7.698 1.85-.278 3.21 1.048 3.63 3.897l1.78 12.037 12.11-1.813-1.99-13.461c-.4-2.707-.02-5.021 2.26-5.362 3.06-.459 5.07 3.245 5.84 8.445.64 4.344.42 9.764-.79 14.824l12.33 3.177c1.99-7.214 2.27-14.681 1.28-21.377-2-13.461-9.2-23.812-18.89-22.362-5.34.799-9.28 4.666-10.64 10.256zm-14.72-40.012l1.53 10.328-15.31 2.292 2.44 16.524 49.85-7.462-3.66-24.715c-1.95-13.177-9.39-20.654-21.28-18.873-11.04 1.652-15.37 9.727-13.57 21.906zm30.98-29.173l-2.44-16.524-49.85 7.463 2.45 16.524 49.84-7.463zm-7.71 29.038l1.04 7.052-11.03 1.652-1.05-7.051c-.49-3.348.35-6.022 4.12-6.587 3.85-.576 6.42 1.587 6.92 4.934zm-27.84-88.822c-2.81-3.73-6.86-5.526-11.63-4.812-8.26 1.237-11.98 9.074-10.16 21.396l3.74 25.284 49.85-7.462-3.94-26.638c-1.93-13.034-8.63-19.457-17.46-18.135-5.77.864-9.22 4.584-10.4 10.367zm-8.74 23.585l-1.06-7.122c-.42-2.849.75-4.334 3.17-4.696 2.42-.363 3.82.738 4.24 3.587l1.05 7.123-7.4 1.108zm24.96-13.275l1.38 9.331-7.83 1.173-1.38-9.331c-.41-2.778.67-4.323 3.24-4.707 2.56-.383 4.18.757 4.59 3.534zm-30.76-50.517l1.53 10.328-15.31 2.292 2.44 16.524 49.85-7.463-3.66-24.715c-1.95-13.176-9.39-20.653-21.28-18.873-11.04 1.652-15.37 9.728-13.57 21.907zm30.98-29.173l-2.44-16.524-49.85 7.462 2.45 16.524 49.84-7.462zm-7.71 29.038l1.04 7.051-11.03 1.653-1.05-7.052c-.49-3.347.35-6.021 4.12-6.586 3.85-.576 6.42 1.586 6.92 4.934zM217.961 539.264c-2.403-16.239-15.128-26.492-30.224-24.232-15.096 2.26-24.302 15.796-21.899 32.036 2.402 16.239 15.128 26.492 30.223 24.232 15.096-2.26 24.302-15.797 21.9-32.036zM204.36 541.3c.917 6.197-3.045 11.886-10.806 13.048-7.762 1.162-13.199-3.12-14.116-9.316-.917-6.197 3.045-11.886 10.807-13.048 7.761-1.162 13.199 3.12 14.115 9.316zm-48.617-70.341l6.764 45.727 13.031-1.951-2.16-14.601 36.814-5.512-2.445-16.524-36.813 5.511-2.161-14.601-13.03 1.951zm18.163-42.529c-2.726-3.669-6.798-5.608-11.355-4.925-9.399 1.407-13.207 13.552-11.31 26.373.885 5.983 3.033 12.14 6.429 17.383l11.734-6.78c-2.768-3.953-4.635-8.697-5.214-12.615-.611-4.131.228-7.314 2.791-7.698 1.852-.277 3.212 1.048 3.634 3.897l1.781 12.037 12.105-1.812-1.992-13.462c-.4-2.706-.015-5.021 2.264-5.362 3.062-.458 5.065 3.246 5.835 8.445.642 4.345.425 9.765-.791 14.825l12.333 3.177c1.99-7.214 2.268-14.682 1.278-21.377-1.992-13.461-9.2-23.812-18.884-22.362-5.341.799-9.282 4.665-10.638 10.256zm-14.726-40.012l1.528 10.328-15.31 2.292 2.445 16.524 49.844-7.462-3.656-24.715c-1.949-13.177-9.388-20.654-21.279-18.874-11.037 1.653-15.374 9.728-13.572 21.907zm30.984-29.173l-2.445-16.524-49.844 7.462 2.444 16.524 49.845-7.462zm-7.713 29.038l1.043 7.051-11.037 1.653-1.043-7.052c-.496-3.347.346-6.021 4.12-6.586 3.845-.576 6.421 1.587 6.917 4.934zm-27.843-88.823c-2.808-3.729-6.859-5.525-11.63-4.811-8.26 1.237-11.977 9.073-10.154 21.395l3.741 25.285 49.844-7.462-3.941-26.638c-1.928-13.034-8.628-19.457-17.458-18.135-5.767.863-9.22 4.583-10.402 10.366zm-8.739 23.586l-1.053-7.123c-.422-2.849.741-4.333 3.162-4.696 2.421-.362 3.822.739 4.243 3.588l1.054 7.122-7.406 1.109zm24.966-13.275l1.381 9.331-7.833 1.172-1.38-9.33c-.411-2.778.67-4.323 3.234-4.707 2.563-.384 4.187.756 4.598 3.534zm-30.764-50.517l1.528 10.327-15.31 2.292 2.445 16.524 49.845-7.462-3.657-24.715c-1.949-13.177-9.388-20.654-21.279-18.873-11.037 1.652-15.374 9.727-13.572 21.907zm30.984-29.173l-2.445-16.525-49.844 7.463 2.445 16.524 49.844-7.462zm-7.713 29.038l1.043 7.051-11.037 1.652-1.043-7.051c-.496-3.348.346-6.022 4.12-6.587 3.845-.575 6.421 1.587 6.917 4.935zm455.782 220.087c-2.402-16.24-15.128-26.492-30.224-24.232-15.096 2.26-24.302 15.796-21.899 32.035 2.402 16.239 15.128 26.492 30.224 24.232 15.095-2.26 24.301-15.796 21.899-32.035zm-13.6 2.036c.916 6.196-3.046 11.886-10.807 13.048-7.762 1.162-13.199-3.121-14.116-9.317-.916-6.197 3.046-11.886 10.807-13.048 7.762-1.162 13.199 3.12 14.116 9.317zm-48.618-70.341l6.765 45.726 13.03-1.951-2.16-14.601 36.814-5.511-2.445-16.525-36.813 5.512-2.16-14.601-13.031 1.951zm18.163-42.53c-2.726-3.669-6.798-5.607-11.355-4.925-9.399 1.407-13.207 13.553-11.31 26.373.885 5.983 3.033 12.141 6.429 17.384l11.734-6.78c-2.768-3.954-4.634-8.698-5.214-12.615-.611-4.131.228-7.315 2.792-7.698 1.851-.278 3.211 1.048 3.633 3.897l1.781 12.037 12.105-1.813-1.992-13.461c-.4-2.707-.015-5.021 2.264-5.362 3.062-.459 5.065 3.245 5.835 8.445.642 4.344.425 9.764-.791 14.824l12.333 3.177c1.99-7.214 2.268-14.681 1.278-21.377-1.992-13.461-9.2-23.812-18.884-22.362-5.341.8-9.281 4.666-10.638 10.256zm-14.726-40.012l1.528 10.328-15.31 2.292 2.445 16.524 49.845-7.462-3.657-24.715c-1.949-13.177-9.388-20.654-21.279-18.873-11.037 1.652-15.374 9.727-13.572 21.906zm30.984-29.173l-2.445-16.524-49.844 7.463 2.445 16.524 49.844-7.463zm-7.713 29.038l1.043 7.052-11.037 1.652-1.043-7.051c-.496-3.348.346-6.022 4.12-6.587 3.845-.575 6.421 1.587 6.917 4.934zm-27.843-88.822c-2.808-3.73-6.859-5.526-11.63-4.812-8.259 1.237-11.977 9.074-10.154 21.396l3.741 25.284 49.845-7.462-3.941-26.638c-1.929-13.034-8.629-19.457-17.458-18.135-5.768.864-9.221 4.584-10.403 10.367zm-8.739 23.585l-1.053-7.122c-.422-2.849.742-4.334 3.163-4.696 2.421-.363 3.821.738 4.242 3.587l1.054 7.123-7.406 1.108zm24.966-13.274l1.381 9.33-7.833 1.173-1.38-9.331c-.411-2.778.67-4.323 3.234-4.707 2.563-.383 4.188.757 4.598 3.535zm-30.764-50.518l1.528 10.328-15.309 2.292 2.444 16.524 49.845-7.463-3.657-24.715c-1.949-13.176-9.387-20.653-21.279-18.873-11.037 1.652-15.374 9.728-13.572 21.907zm30.984-29.173l-2.444-16.524-49.845 7.462 2.445 16.524 49.844-7.462zm-7.713 29.038l1.043 7.051-11.037 1.653-1.043-7.052c-.495-3.347.346-6.021 4.12-6.586 3.845-.576 6.422 1.586 6.917 4.934zm455.785 220.087c-2.41-16.24-15.13-26.493-30.227-24.233-15.095 2.26-24.302 15.797-21.899 32.036 2.402 16.239 15.128 26.492 30.224 24.232 15.092-2.26 24.302-15.796 21.902-32.035zm-13.6 2.036c.91 6.196-3.05 11.886-10.81 13.048-7.762 1.162-13.199-3.121-14.116-9.317-.916-6.197 3.046-11.886 10.807-13.048 7.759-1.162 13.199 3.12 14.119 9.317zm-48.621-70.341l6.765 45.726 13.03-1.951-2.16-14.601 36.816-5.512-2.45-16.524-36.81 5.512-2.16-14.601-13.031 1.951zm18.163-42.53c-2.726-3.669-6.798-5.607-11.355-4.925-9.399 1.407-13.207 13.553-11.31 26.373.885 5.983 3.034 12.141 6.429 17.384l11.734-6.78c-2.768-3.954-4.634-8.698-5.214-12.615-.611-4.131.228-7.315 2.792-7.698 1.851-.278 3.212 1.048 3.633 3.897l1.781 12.037 12.105-1.813-1.992-13.461c-.4-2.707-.015-5.021 2.264-5.362 3.062-.459 5.066 3.245 5.835 8.445.643 4.344.425 9.764-.791 14.824l12.337 3.177c1.99-7.214 2.26-14.682 1.27-21.377-1.99-13.461-9.196-23.812-18.88-22.362-5.341.799-9.281 4.666-10.638 10.256zM961.506 268.3l1.528 10.328-15.309 2.292 2.444 16.524 49.841-7.462-3.653-24.715c-1.949-13.177-9.387-20.654-21.279-18.874-11.037 1.653-15.374 9.728-13.572 21.907zm30.984-29.173l-2.445-16.524-49.844 7.462 2.445 16.525 49.844-7.463zm-7.713 29.038l1.043 7.052-11.037 1.652-1.043-7.051c-.495-3.348.346-6.022 4.12-6.587 3.845-.576 6.422 1.587 6.917 4.934zm-27.843-88.822c-2.808-3.73-6.859-5.526-11.629-4.812-8.26 1.237-11.978 9.074-10.155 21.396l3.741 25.284 49.845-7.462-3.941-26.638c-1.929-13.034-8.629-19.457-17.458-18.135-5.768.863-9.221 4.584-10.403 10.367zm-8.738 23.585l-1.054-7.122c-.422-2.849.742-4.334 3.163-4.696 2.421-.363 3.821.738 4.242 3.587l1.054 7.123-7.405 1.108zm24.966-13.275l1.38 9.331-7.833 1.173-1.38-9.331c-.411-2.778.67-4.323 3.234-4.707 2.563-.383 4.188.757 4.599 3.534zm-30.765-50.517l1.528 10.328-15.309 2.292 2.444 16.524 49.845-7.463-3.657-24.715c-1.949-13.176-9.387-20.653-21.279-18.873-11.037 1.652-15.374 9.727-13.572 21.907zm30.984-29.173l-2.444-16.524-49.845 7.462 2.445 16.524 49.844-7.462zm-7.713 29.038l1.043 7.051-11.037 1.653-1.043-7.052c-.495-3.347.346-6.021 4.12-6.586 3.845-.576 6.422 1.586 6.917 4.934zm455.782 220.087c-2.4-16.239-15.13-26.492-30.22-24.232-15.1 2.26-24.31 15.796-21.9 32.035 2.4 16.24 15.12 26.492 30.22 24.232 15.1-2.26 24.3-15.796 21.9-32.035zm-13.6 2.036c.92 6.197-3.05 11.886-10.81 13.048-7.76 1.162-13.2-3.12-14.11-9.317-.92-6.196 3.04-11.886 10.8-13.048 7.77-1.162 13.2 3.121 14.12 9.317zm-48.62-70.341l6.77 45.726 13.03-1.951-2.16-14.601 36.81-5.511-2.44-16.524-36.82 5.511-2.16-14.601-13.03 1.951zm18.17-42.53c-2.73-3.668-6.8-5.607-11.36-4.925-9.4 1.408-13.21 13.553-11.31 26.374.89 5.982 3.03 12.14 6.43 17.383l11.73-6.78c-2.76-3.954-4.63-8.698-5.21-12.615-.61-4.131.23-7.314 2.79-7.698 1.85-.277 3.21 1.048 3.63 3.897l1.78 12.037 12.11-1.812-1.99-13.462c-.4-2.706-.02-5.021 2.26-5.362 3.06-.458 5.07 3.246 5.84 8.445.64 4.345.42 9.765-.79 14.825l12.33 3.176c1.99-7.214 2.27-14.681 1.28-21.376-1.99-13.462-9.2-23.813-18.89-22.363-5.34.8-9.28 4.666-10.63 10.256zm-14.73-40.011l1.53 10.327-15.31 2.292 2.44 16.525 49.85-7.463-3.66-24.715c-1.95-13.176-9.39-20.653-21.28-18.873-11.04 1.652-15.37 9.727-13.57 21.907zm30.98-29.173l-2.44-16.524-49.85 7.462 2.45 16.524 49.84-7.462zm-7.71 29.038l1.04 7.051-11.03 1.652-1.05-7.051c-.49-3.347.35-6.021 4.12-6.586 3.85-.576 6.42 1.586 6.92 4.934zm-27.84-88.823c-2.81-3.729-6.86-5.526-11.63-4.811-8.26 1.236-11.98 9.073-10.16 21.395l3.74 25.285 49.85-7.463-3.94-26.638c-1.93-13.034-8.63-19.456-17.46-18.135-5.77.864-9.22 4.584-10.4 10.367zm-8.74 23.586l-1.06-7.123c-.42-2.849.75-4.333 3.17-4.696 2.42-.362 3.82.738 4.24 3.587l1.05 7.123-7.4 1.109zm24.96-13.275l1.39 9.33-7.84 1.173-1.38-9.331c-.41-2.777.67-4.322 3.24-4.706 2.56-.384 4.18.756 4.59 3.534zm-30.76-50.518l1.53 10.328-15.31 2.292 2.44 16.524 49.85-7.462-3.66-24.715c-1.95-13.177-9.39-20.654-21.28-18.874-11.03 1.653-15.37 9.728-13.57 21.907zm30.98-29.173l-2.44-16.524-49.84 7.462 2.44 16.525 49.84-7.463zm-7.71 29.038l1.04 7.052-11.03 1.652-1.05-7.051c-.49-3.348.35-6.022 4.12-6.587 3.85-.576 6.43 1.587 6.92 4.934zM318.251 524.25c-2.402-16.24-15.128-26.493-30.223-24.232-15.096 2.26-24.302 15.796-21.9 32.035 2.403 16.239 15.128 26.492 30.224 24.232 15.096-2.26 24.302-15.796 21.899-32.035zm-13.6 2.036c.917 6.196-3.045 11.886-10.807 13.048-7.761 1.162-13.199-3.121-14.115-9.317-.917-6.197 3.045-11.886 10.807-13.048 7.761-1.162 13.198 3.12 14.115 9.317zm-48.618-70.341l6.765 45.726 13.031-1.951-2.16-14.601 36.813-5.511-2.444-16.525-36.814 5.512-2.16-14.601-13.031 1.951zm18.164-42.53c-2.727-3.669-6.798-5.607-11.355-4.925-9.4 1.407-13.207 13.553-11.31 26.373.885 5.983 3.033 12.141 6.429 17.384l11.734-6.78c-2.769-3.954-4.635-8.698-5.214-12.615-.612-4.131.228-7.315 2.791-7.698 1.851-.278 3.212 1.048 3.633 3.897l1.781 12.037 12.105-1.813-1.991-13.461c-.401-2.707-.015-5.021 2.263-5.362 3.062-.459 5.066 3.245 5.835 8.445.643 4.344.426 9.764-.791 14.824l12.334 3.177c1.99-7.214 2.268-14.681 1.277-21.377-1.991-13.461-9.2-23.812-18.884-22.362-5.34.799-9.281 4.666-10.637 10.256zm-14.727-40.012l1.528 10.328-15.309 2.292 2.445 16.524 49.844-7.462-3.656-24.715c-1.95-13.177-9.388-20.654-21.28-18.874-11.037 1.653-15.373 9.728-13.572 21.907zm30.984-29.173l-2.444-16.524-49.845 7.463 2.445 16.524 49.844-7.463zm-7.713 29.038l1.043 7.052-11.037 1.652-1.043-7.051c-.495-3.348.347-6.022 4.121-6.587 3.845-.576 6.421 1.587 6.916 4.934zm-27.843-88.822c-2.808-3.73-6.858-5.526-11.629-4.812-8.26 1.237-11.977 9.074-10.154 21.396l3.74 25.284 49.845-7.462-3.941-26.638c-1.928-13.034-8.628-19.457-17.458-18.135-5.768.864-9.22 4.584-10.403 10.367zm-8.738 23.585l-1.054-7.122c-.421-2.849.742-4.334 3.163-4.696 2.421-.363 3.821.738 4.243 3.587l1.053 7.123-7.405 1.108zm24.966-13.275l1.38 9.331-7.832 1.173-1.381-9.331c-.411-2.778.671-4.323 3.234-4.707 2.564-.383 4.188.757 4.599 3.534zm-30.764-50.517l1.527 10.328-15.309 2.292 2.445 16.524 49.844-7.463-3.656-24.715c-1.95-13.176-9.388-20.653-21.279-18.873-11.037 1.652-15.374 9.728-13.572 21.907zm30.984-29.173l-2.445-16.524-49.844 7.462 2.444 16.524 49.845-7.462zm-7.714 29.038l1.043 7.051-11.037 1.653-1.043-7.052c-.495-3.347.347-6.021 4.121-6.586 3.845-.576 6.421 1.586 6.916 4.934zM719.415 464.19c-2.403-16.239-15.128-26.492-30.224-24.232-15.096 2.26-24.302 15.797-21.9 32.036 2.403 16.239 15.128 26.492 30.224 24.232 15.096-2.26 24.302-15.796 21.9-32.036zm-13.601 2.037c.917 6.196-3.045 11.886-10.807 13.048-7.761 1.161-13.198-3.121-14.115-9.317-.917-6.197 3.045-11.886 10.807-13.048 7.761-1.162 13.198 3.12 14.115 9.317zm-48.618-70.341l6.765 45.726 13.031-1.951-2.16-14.601 36.814-5.512-2.445-16.524-36.814 5.512-2.16-14.601-13.031 1.951zm18.164-42.53c-2.727-3.669-6.798-5.607-11.355-4.925-9.4 1.407-13.207 13.553-11.31 26.373.885 5.983 3.033 12.141 6.429 17.384l11.734-6.78c-2.768-3.954-4.635-8.698-5.214-12.615-.611-4.131.228-7.315 2.791-7.698 1.851-.278 3.212 1.048 3.634 3.897l1.78 12.036 12.105-1.812-1.991-13.461c-.401-2.707-.015-5.021 2.263-5.363 3.062-.458 5.066 3.246 5.835 8.446.643 4.344.426 9.764-.791 14.824l12.334 3.177c1.99-7.214 2.268-14.682 1.277-21.377-1.991-13.461-9.2-23.812-18.884-22.362-5.34.799-9.281 4.665-10.637 10.256zm-14.726-40.012l1.527 10.328-15.309 2.292 2.445 16.524 49.844-7.462-3.656-24.715c-1.95-13.177-9.388-20.654-21.279-18.874-11.037 1.653-15.374 9.728-13.572 21.907zm30.984-29.173l-2.445-16.524-49.845 7.462 2.445 16.525 49.845-7.463zm-7.714 29.038l1.043 7.052-11.037 1.652-1.043-7.051c-.495-3.348.347-6.022 4.121-6.587 3.845-.576 6.421 1.587 6.916 4.934zm-27.843-88.823c-2.808-3.729-6.858-5.525-11.629-4.811-8.26 1.237-11.977 9.074-10.154 21.396l3.741 25.284 49.844-7.462-3.941-26.638c-1.928-13.034-8.628-19.457-17.458-18.135-5.768.863-9.22 4.584-10.403 10.366zm-8.738 23.586l-1.054-7.122c-.421-2.849.742-4.334 3.163-4.696 2.421-.363 3.821.738 4.243 3.587l1.054 7.123-7.406 1.108zm24.966-13.275l1.38 9.331-7.832 1.172-1.381-9.33c-.411-2.778.671-4.323 3.234-4.707 2.564-.383 4.188.757 4.599 3.534zm-30.764-50.517l1.528 10.327-15.31 2.292 2.445 16.525 49.844-7.463-3.656-24.715c-1.949-13.176-9.388-20.653-21.279-18.873-11.037 1.652-15.374 9.727-13.572 21.907zm30.984-29.173l-2.445-16.524-49.844 7.462 2.444 16.524 49.845-7.462zm-7.714 29.038l1.044 7.051-11.037 1.653-1.044-7.052c-.495-3.347.347-6.021 4.121-6.586 3.845-.576 6.421 1.586 6.916 4.934zm455.785 220.087c-2.4-16.239-15.13-26.492-30.23-24.232-15.09 2.26-24.3 15.796-21.9 32.035 2.41 16.24 15.13 26.492 30.23 24.232 15.09-2.26 24.3-15.796 21.9-32.035zm-13.6 2.036c.91 6.197-3.05 11.886-10.81 13.048-7.76 1.162-13.2-3.12-14.11-9.317-.92-6.196 3.04-11.886 10.8-13.048 7.76-1.162 13.2 3.12 14.12 9.317zm-48.62-70.341l6.76 45.726 13.04-1.951-2.16-14.601 36.81-5.511-2.45-16.524-36.81 5.511-2.16-14.601-13.03 1.951zm18.16-42.53c-2.72-3.668-6.79-5.607-11.35-4.925-9.4 1.407-13.21 13.553-11.31 26.374.88 5.982 3.03 12.14 6.43 17.383l11.73-6.78c-2.77-3.954-4.63-8.698-5.21-12.615-.61-4.131.23-7.314 2.79-7.698 1.85-.277 3.21 1.048 3.63 3.897l1.78 12.037 12.11-1.812-1.99-13.462c-.4-2.706-.02-5.021 2.26-5.362 3.06-.459 5.07 3.246 5.83 8.445.65 4.345.43 9.765-.79 14.825l12.34 3.176c1.99-7.214 2.27-14.681 1.27-21.376-1.99-13.462-9.2-23.813-18.88-22.363-5.34.8-9.28 4.666-10.64 10.256zm-14.72-40.011l1.52 10.327-15.3 2.292 2.44 16.524 49.84-7.462-3.65-24.715c-1.95-13.176-9.39-20.653-21.28-18.873-11.04 1.652-15.37 9.727-13.57 21.907zm30.98-29.173l-2.44-16.524-49.85 7.462 2.45 16.524 49.84-7.462zm-7.71 29.038l1.04 7.051-11.04 1.652-1.04-7.051c-.49-3.347.35-6.022 4.12-6.587 3.85-.575 6.42 1.587 6.92 4.935zm-27.85-88.823c-2.8-3.729-6.85-5.526-11.62-4.811-8.26 1.236-11.98 9.073-10.16 21.395l3.74 25.285 49.85-7.463-3.94-26.638c-1.93-13.034-8.63-19.457-17.46-18.135-5.77.864-9.22 4.584-10.41 10.367zm-8.73 23.586l-1.06-7.123c-.42-2.849.74-4.333 3.17-4.696 2.42-.362 3.82.738 4.24 3.587l1.05 7.123-7.4 1.109zm24.96-13.275l1.38 9.33-7.83 1.173-1.38-9.331c-.41-2.777.67-4.322 3.23-4.706 2.57-.384 4.19.756 4.6 3.534zm-30.76-50.518l1.53 10.328-15.31 2.292 2.44 16.524 49.85-7.462-3.66-24.715c-1.95-13.177-9.39-20.654-21.28-18.874-11.04 1.653-15.37 9.728-13.57 21.907zm30.98-29.173l-2.44-16.524-49.85 7.462 2.45 16.525 49.84-7.463zm-7.71 29.038l1.04 7.052-11.04 1.652-1.04-7.051c-.49-3.348.35-6.022 4.12-6.587 3.85-.576 6.42 1.587 6.92 4.934zm455.78 220.087c-2.4-16.239-15.13-26.492-30.22-24.232-15.1 2.26-24.3 15.797-21.9 32.036 2.4 16.239 15.13 26.492 30.22 24.232 15.1-2.26 24.3-15.796 21.9-32.036zm-13.6 2.036c.92 6.197-3.04 11.886-10.81 13.048-7.76 1.162-13.19-3.12-14.11-9.316-.92-6.197 3.04-11.886 10.81-13.048 7.76-1.162 13.19 3.12 14.11 9.316zm-48.62-70.341l6.77 45.727 13.03-1.951-2.16-14.601 36.81-5.512-2.44-16.524-36.82 5.512-2.16-14.602-13.03 1.951zm18.17-42.529c-2.73-3.669-6.8-5.608-11.36-4.925-9.4 1.407-13.21 13.552-11.31 26.373.89 5.983 3.03 12.141 6.43 17.384l11.73-6.781c-2.76-3.953-4.63-8.697-5.21-12.615-.61-4.131.23-7.314 2.79-7.698 1.85-.277 3.21 1.048 3.64 3.897l1.78 12.037 12.1-1.812-1.99-13.461c-.4-2.707-.02-5.022 2.26-5.363 3.06-.458 5.07 3.246 5.84 8.445.64 4.345.42 9.765-.79 14.825l12.33 3.177c1.99-7.214 2.27-14.682 1.28-21.377-1.99-13.461-9.2-23.812-18.89-22.362-5.34.799-9.28 4.665-10.63 10.256zm-14.73-40.012l1.53 10.328-15.31 2.292 2.44 16.524 49.85-7.462-3.66-24.715c-1.95-13.177-9.39-20.654-21.28-18.874-11.03 1.653-15.37 9.728-13.57 21.907zm30.98-29.173l-2.44-16.524-49.85 7.462 2.45 16.524 49.84-7.462zm-7.71 29.038l1.04 7.051-11.03 1.653-1.05-7.051c-.49-3.348.35-6.022 4.12-6.587 3.85-.576 6.43 1.587 6.92 4.934zm-27.84-88.823c-2.81-3.729-6.86-5.525-11.63-4.81-8.26 1.236-11.98 9.072-10.16 21.394l3.75 25.285 49.84-7.462-3.94-26.638c-1.93-13.034-8.63-19.457-17.46-18.135-5.77.863-9.22 4.584-10.4 10.366zm-8.74 23.586l-1.05-7.122c-.43-2.849.74-4.334 3.16-4.697 2.42-.362 3.82.739 4.24 3.588l1.05 7.122-7.4 1.109zm24.97-13.275l1.38 9.331-7.84 1.172-1.38-9.33c-.41-2.778.67-4.323 3.24-4.707 2.56-.384 4.18.756 4.6 3.534zm-30.77-50.517l1.53 10.327-15.31 2.292 2.44 16.524 49.85-7.462-3.66-24.715c-1.95-13.177-9.39-20.654-21.28-18.873-11.03 1.652-15.37 9.727-13.57 21.907zm30.99-29.173l-2.45-16.524-49.84 7.462 2.44 16.524 49.85-7.462zm-7.72 29.038l1.05 7.05-11.04 1.653-1.05-7.05c-.49-3.349.35-6.023 4.13-6.588 3.84-.575 6.42 1.587 6.91 4.935z" fill="#208359"/></g></svg>