<svg width="36" height="36" viewBox="0 0 36 36" fill="none" xmlns="http://www.w3.org/2000/svg"><path fill="#7C90DD" d="M0 0h36v36H0z"/><g clip-path="url(#clip0)"><path d="M29.63 8.384c-.294-.359-.733-.556-1.237-.556-.274 0-.565.057-.863.171L7.214 15.755c-1.078.41-1.223 1.028-1.214 1.36.01.331.19.94 1.29 1.29a.738.738 0 00.02.005l4.213 1.206 2.28 6.517c.31.888 1.007 1.44 1.82 1.44.512 0 1.016-.214 1.456-.62l2.607-2.4 3.78 3.044h.002l.036.03.01.008c.42.326.879.498 1.327.498.875 0 1.572-.648 1.775-1.65l3.33-16.437c.133-.66.02-1.25-.317-1.662zM12.932 19.387l8.13-4.153L16 20.613a.702.702 0 00-.17.313l-.977 3.954-1.921-5.493zm3.194 6.531a1.257 1.257 0 01-.102.084l.906-3.668 1.647 1.327-2.451 2.257zm12.44-16.151l-3.329 16.436c-.032.157-.134.524-.397.524-.13 0-.294-.071-.46-.2l-4.285-3.45h-.002l-2.549-2.054 7.321-7.778a.703.703 0 00-.832-1.108l-12.04 6.15-4.272-1.221 20.31-7.753c.171-.065.29-.08.36-.08.044 0 .12.006.149.041.037.046.085.201.026.493z" fill="#fff"/></g><defs><clipPath id="clip0"><path fill="#fff" transform="translate(6 6)" d="M0 0h24v24H0z"/></clipPath></defs></svg>