<svg width="36" height="36" viewBox="0 0 36 36" fill="none" xmlns="http://www.w3.org/2000/svg"><path fill="#7C90DD" d="M0 0h36v36H0z"/><g clip-path="url(#clip0)" fill="#fff"><path d="M29.155 19.893c.716-6.027-.344-9.833-2.256-11.553l.001-.001c-3.086-2.94-13.508-3.374-17.2.132-1.658 1.714-2.242 4.232-2.306 7.348-.064 3.117-.14 8.956 5.301 10.54h.005l-.005 2.419s-.037.98.589 1.177c.716.232 1.04-.223 3.267-2.883 3.724.323 6.584-.417 6.909-.525.752-.252 5.007-.815 5.695-6.654zM16.918 25.37s-2.357 2.939-3.09 3.702c-.24.248-.503.225-.499-.267 0-.323.018-4.016.018-4.016-4.613-1.322-4.341-6.294-4.291-8.896.05-2.602.526-4.732 1.93-6.167 3.239-3.037 12.376-2.358 14.704-.17 2.846 2.523 1.833 9.65 1.839 9.894-.585 4.874-4.033 5.183-4.667 5.394-.271.09-2.786.737-5.944.526z"/><path d="M18.222 10.296c-.385 0-.385.6 0 .605 2.987.023 5.447 2.105 5.474 5.924 0 .403.59.398.585-.005h-.001c-.032-4.115-2.718-6.5-6.058-6.524z"/><path d="M22.151 16.192c-.009.398.58.418.585.014.049-2.268-1.35-4.137-3.979-4.335-.385-.027-.425.577-.041.605 2.28.173 3.481 1.73 3.435 3.716zm-.63 2.582c-.494-.286-.997-.108-1.205.173l-.435.563c-.221.286-.634.248-.634.248-3.014-.797-3.82-3.951-3.82-3.951s-.037-.427.239-.656l.544-.45c.272-.216.444-.736.167-1.247-.74-1.337-1.237-1.798-1.49-2.152-.266-.333-.666-.408-1.082-.183h-.009c-.865.506-1.812 1.453-1.509 2.428.517 1.028 1.467 4.305 4.495 6.78 1.423 1.172 3.675 2.372 4.631 2.649l.009.014c.942.314 1.858-.67 2.347-1.561v-.007c.217-.431.145-.84-.172-1.106-.562-.548-1.41-1.153-2.076-1.542z"/><path d="M19.169 14.104c.961.056 1.427.558 1.477 1.589.018.403.603.375.585-.028-.064-1.346-.766-2.096-2.03-2.166-.385-.023-.421.582-.032.605z"/></g><defs><clipPath id="clip0"><path fill="#fff" transform="translate(6 6)" d="M0 0h24v24H0z"/></clipPath></defs></svg>