<svg width="36" height="36" viewBox="0 0 36 36" fill="none" xmlns="http://www.w3.org/2000/svg"><path fill="#7C90DD" d="M0 0h36v36H0z"/><g clip-path="url(#clip0)"><path fill-rule="evenodd" clip-rule="evenodd" d="M25.959 10.008a11.077 11.077 0 00-7.887-3.27c-6.145 0-11.147 5.001-11.15 11.148 0 1.965.513 3.884 1.489 5.574l-1.582 5.778 5.91-1.55a11.137 11.137 0 005.329 1.356h.004c6.145 0 11.147-5.001 11.15-11.149a11.08 11.08 0 00-3.263-7.887zm-7.887 17.154h-.004a9.255 9.255 0 01-4.716-1.292l-.338-.201-3.508.92.936-3.42-.22-.35a9.245 9.245 0 01-1.417-4.932c.002-5.11 4.16-9.266 9.27-9.266a9.2 9.2 0 016.552 2.717 9.212 9.212 0 012.712 6.557c-.002 5.11-4.16 9.267-9.267 9.267zm5.083-6.941c-.278-.14-1.648-.813-1.903-.906-.256-.093-.441-.14-.627.14-.186.278-.72.906-.882 1.091-.163.186-.325.21-.604.07-.279-.14-1.176-.434-2.24-1.383-.828-.738-1.387-1.65-1.55-1.93-.162-.278-.001-.415.122-.568.302-.374.604-.767.697-.953.093-.186.046-.348-.024-.488s-.626-1.51-.858-2.069c-.227-.543-.456-.47-.627-.478-.163-.008-.349-.01-.534-.01-.186 0-.488.07-.743.35-.255.278-.975.952-.975 2.323 0 1.372.998 2.696 1.137 2.882.14.186 1.965 3 4.76 4.206.664.288 1.183.459 1.588.587.667.212 1.274.182 1.754.11.536-.08 1.648-.673 1.88-1.324.233-.65.233-1.208.163-1.325-.07-.116-.255-.185-.534-.325z" fill="#fff"/></g><defs><clipPath id="clip0"><path fill="#fff" transform="translate(6 6)" d="M0 0h24v24H0z"/></clipPath></defs></svg>